<svg xmlns="http://www.w3.org/2000/svg" xmlns:xlink="http://www.w3.org/1999/xlink" aria-hidden="true" role="img" class="iconify iconify--logos" width="35.93" height="32" preserveAspectRatio="xMidYMid meet" viewBox="0 0 256 228"><path fill="#00D8FF" d="M210.483 73.824a171.49 171.49 0 0 0-8.24-2.597c.465-1.9.893-3.777 1.273-5.621c6.238-30.281 2.16-54.676-11.769-62.708c-13.355-7.7-35.196.329-57.254 19.526a171.23 171.23 0 0 0-6.375 5.848a155.866 155.866 0 0 0-4.241-3.917C100.759 3.829 77.587-4.822 63.673 3.233C50.33 10.957 46.379 33.89 51.995 62.588a170.974 170.974 0 0 0 1.892 8.48c-3.28.932-6.445 1.924-9.474 2.98C17.309 83.498 0 98.307 0 113.668c0 15.865 18.582 31.778 46.812 41.427a145.52 145.52 0 0 0 6.921 2.165a167.467 167.467 0 0 0-2.01 9.138c-5.354 28.2-1.173 50.591 12.134 58.266c13.744 7.926 36.812-.22 59.273-19.855a145.567 145.567 0 0 0 5.342-4.923a168.064 168.064 0 0 0 6.92 6.314c21.758 18.722 43.246 26.282 56.54 18.586c13.731-7.949 18.194-32.003 12.4-61.268a145.016 145.016 0 0 0-1.535-6.842c1.62-.48 3.21-.974 4.76-1.488c29.348-9.723 48.443-25.443 48.443-41.52c0-15.417-17.868-30.326-45.517-39.844Zm-6.365 70.984c-1.596.54-3.233 1.057-4.902 1.557c-3.536-10.906-8.274-22.33-13.87-33.893c5.322-11.361 9.869-22.705 13.221-33.623c3.355.97 6.545 2.011 9.521 3.112c18.418 6.979 30.405 16.323 30.405 22.318c0 6.592-13.077 16.54-34.375 40.529Zm-10.056 29.366c2.243 11.814 2.76 22.898 1.453 31.985c-1.216 8.47-4.03 14.138-7.249 15.99c-7.369 4.261-23.944-1.37-42.509-17.019a156.726 156.726 0 0 1-6.138-5.731c7.514-8.376 15.014-17.873 22.338-28.272c12.304-1.153 24.046-3.067 34.105-5.953Zm-81.127 60.233c-5.731 1.35-11.383 1.993-16.777 1.993c-6.628 0-12.772-.986-17.992-2.98c-7.967-2.913-12.626-8.057-12.626-14.43c0-6.592 3.44-13.657 9.538-20.474a156.68 156.68 0 0 1 6.138 5.732c18.565 15.648 35.14 21.279 42.509 17.019c.78-.451 1.664-1.336 2.522-2.717c-4.168 7.748-8.736 12.876-13.312 15.857Zm-49.882-20.044c-13.273 16.168-16.147 31.286-9.72 37.18c7.029 6.437 27.029 1.308 48.204-13.52a171.415 171.415 0 0 0 6.138-5.73c-7.514-8.377-15.014-17.875-22.339-28.273a209.987 209.987 0 0 1-22.283 10.343Zm-4.43-20.89c-2.96-1.118-5.795-2.314-8.476-3.579c-18.376-8.689-29.955-18.89-29.955-25.482c0-6.22 10.4-15.453 27.558-22.313c2.55-.997 5.205-1.94 7.93-2.832c3.352 10.918 7.9 22.262 13.221 33.623c-5.374 11.487-9.976 22.856-13.278 33.784c-.344-.055-.684-.116-1-.201Zm58.468-97.795c-12.324-1.138-24.076-3.022-34.144-5.88c-2.244-11.814-2.76-22.898-1.453-31.985c1.216-8.47 4.03-14.138 7.249-15.99c7.37-4.261 23.944 1.37 42.509 17.019a156.69 156.69 0 0 1 6.138 5.731c-7.514 8.376-15.014 17.873-22.299 28.105Zm96.197 10.075c-3.271.978-6.702 1.938-10.253 2.844c-3.536-10.906-8.274-22.33-13.87-33.893c5.322-11.361 9.869-22.705 13.221-33.623c3.355.97 6.545 2.011 9.521 3.112c18.418 6.979 30.405 16.323 30.405 22.318c0 6.592-13.077 16.54-34.375 40.529l5.351-1.287ZM128.061 66.34c6.494 0 11.759 5.897 11.759 13.18c0 7.283-5.265 13.18-11.759 13.18c-6.494 0-11.758-5.897-11.758-13.18c0-7.283 5.264-13.18 11.758-13.18Zm0 85.401c-6.494 0-11.758-5.897-11.758-13.18c0-7.283 5.264-13.18 11.758-13.18c6.494 0 11.759 5.897 11.759 13.18c0 7.283-5.265 13.18-11.759 13.18Z"/></svg>
